<svg id="Layer_1" data-name="Layer 1" xmlns="http://www.w3.org/2000/svg" viewBox="0 0 1010.03 1053.59"><defs><style>.cls-1,.cls-11,.cls-15,.cls-17,.cls-4,.cls-7{fill:none;}.cls-1,.cls-10,.cls-2,.cls-3,.cls-9{stroke:#000;}.cls-1,.cls-10,.cls-11,.cls-12,.cls-13,.cls-15,.cls-17,.cls-2,.cls-3,.cls-4,.cls-5,.cls-6,.cls-7,.cls-9{stroke-miterlimit:10;}.cls-1,.cls-10,.cls-11,.cls-13,.cls-4,.cls-7{stroke-width:10px;}.cls-14,.cls-16,.cls-3,.cls-6{fill:#fff;}.cls-4,.cls-5,.cls-6{stroke:#e53d00;}.cls-5{fill:#e53d00;}.cls-7{stroke:#009f5c;}.cls-8{fill:#fec311;}.cls-12,.cls-9{stroke-width:30px;}.cls-11,.cls-12,.cls-13{stroke:#1c3b8b;}.cls-13{fill:#1c3b8b;}.cls-15,.cls-17{stroke:#fff;}.cls-15{stroke-width:47.25px;stroke-dasharray:9.66 144.85;}.cls-16{font-size:48px;font-family:Roboto-Bold, Roboto;font-weight:700;}.cls-17{stroke-width:20px;}</style></defs><title>coming-soon-icon</title><g id="examinations"><path class="cls-1" d="M243.23,767s2.09,25.07-12.38,43c-7.94,9.87-25.22,24.6-42.95,24.86" transform="translate(-54.97 -70.41)"/><path class="cls-2" d="M69.89,705.44c-17.46-41.57-15.8-64.83,5.37-75.41,14-7,34.52,4.81,36.81,6.18l-5.14,8.58c-4.59-2.74-19.44-9.69-27.19-5.82-6.66,3.33-22.25,11.12-.63,62.59Z" transform="translate(-54.97 -70.41)"/><path class="cls-2" d="M193.63,703.44l-9.22-3.88c21.62-51.47,6-59.26-.63-62.59-7.75-3.88-22.6,3.08-27.19,5.82l-5.14-8.58c2.28-1.37,22.75-13.21,36.8-6.18C209.43,638.61,211.08,661.87,193.63,703.44Z" transform="translate(-54.97 -70.41)"/><circle class="cls-2" cx="54.03" cy="569.59" r="9"/><circle class="cls-2" cx="188.53" cy="679.09" r="21.5"/><circle class="cls-3" cx="188.03" cy="678.59" r="9"/><circle class="cls-2" cx="98.03" cy="569.59" r="9"/><path class="cls-2" d="M193.89,702.81c.11-.27-8.8-4.89-8.83-4.82s-.17.41-.26.62l-.12.3a301,301,0,0,1-19.47,31C151.53,748.75,139.29,759,131.62,758c-4.81-.6-15.71-5.32-34.58-30.11a319.32,319.32,0,0,1-18-26.62c-.21-.48-.41-1-.61-1.45-.11-.28-9.5,3.16-9.39,3.44,0,0,35.64,61.45,61.37,64.66a17.49,17.49,0,0,0,2.29.14c11.54,0,24.87-10.6,40.62-32.29a306,306,0,0,0,20.32-32.38Z" transform="translate(-54.97 -70.41)"/><path class="cls-1" d="M133,767s-2.09,25.07,12.38,43c7.94,9.87,25.21,24.6,43,24.86" transform="translate(-54.97 -70.41)"/></g><g id="examinations-color"><path class="cls-4" d="M240.73,1041.5s2.09,25.07-12.38,43c-7.94,9.87-25.22,24.6-42.95,24.86" transform="translate(-54.97 -70.41)"/><path class="cls-5" d="M67.39,979.94c-17.46-41.57-15.8-64.83,5.37-75.41,14-7,34.52,4.81,36.81,6.18l-5.14,8.58c-4.59-2.74-19.44-9.69-27.19-5.82-6.66,3.33-22.25,11.12-.63,62.59Z" transform="translate(-54.97 -70.41)"/><path class="cls-5" d="M191.13,977.94l-9.22-3.88c21.62-51.47,6-59.26-.63-62.59-7.75-3.88-22.6,3.08-27.19,5.82L149,908.71c2.28-1.37,22.75-13.21,36.8-6.18C206.93,913.11,208.58,936.37,191.13,977.94Z" transform="translate(-54.97 -70.41)"/><circle class="cls-5" cx="51.53" cy="844.09" r="9"/><circle class="cls-5" cx="186.03" cy="953.59" r="21.5"/><circle class="cls-6" cx="185.53" cy="953.09" r="9"/><circle class="cls-5" cx="95.53" cy="844.09" r="9"/><path class="cls-5" d="M191.39,977.31c.11-.27-8.8-4.89-8.83-4.82s-.17.41-.26.62l-.12.3a301,301,0,0,1-19.47,31c-13.68,18.81-25.92,29.06-33.59,28.1-4.81-.6-15.71-5.32-34.58-30.11a319.32,319.32,0,0,1-18-26.62c-.21-.48-.41-1-.61-1.45-.11-.28-9.5,3.16-9.39,3.44,0,0,35.64,61.45,61.37,64.66a17.49,17.49,0,0,0,2.29.14c11.54,0,24.87-10.6,40.62-32.29a306,306,0,0,0,20.32-32.38Z" transform="translate(-54.97 -70.41)"/><path class="cls-4" d="M130.5,1041.5s-2.09,25.07,12.38,43c7.94,9.87,25.21,24.6,43,24.86" transform="translate(-54.97 -70.41)"/></g><g id="history"><rect class="cls-1" x="287.03" y="559.59" width="155" height="207"/><line class="cls-1" x1="333.03" y1="574.59" x2="333.03" y2="622.59"/><line class="cls-1" x1="302.03" y1="646.59" x2="427.03" y2="646.59"/><line class="cls-1" x1="302.03" y1="666.59" x2="427.03" y2="666.59"/><line class="cls-1" x1="302.03" y1="686.59" x2="427.03" y2="686.59"/><line class="cls-1" x1="302.03" y1="706.59" x2="427.03" y2="706.59"/><line class="cls-1" x1="302.03" y1="726.59" x2="427.03" y2="726.59"/><line class="cls-1" x1="302.03" y1="746.59" x2="427.03" y2="746.59"/><line class="cls-1" x1="309.03" y1="598.59" x2="357.03" y2="598.59"/></g><g id="history-color"><rect class="cls-7" x="287.03" y="838.59" width="155" height="207"/><line class="cls-7" x1="333.03" y1="853.59" x2="333.03" y2="901.59"/><line class="cls-7" x1="302.03" y1="925.59" x2="427.03" y2="925.59"/><line class="cls-7" x1="302.03" y1="945.59" x2="427.03" y2="945.59"/><line class="cls-7" x1="302.03" y1="965.59" x2="427.03" y2="965.59"/><line class="cls-7" x1="302.03" y1="985.59" x2="427.03" y2="985.59"/><line class="cls-7" x1="302.03" y1="1005.59" x2="427.03" y2="1005.59"/><line class="cls-7" x1="302.03" y1="1025.59" x2="427.03" y2="1025.59"/><line class="cls-7" x1="309.03" y1="877.59" x2="357.03" y2="877.59"/></g><g id="extras"><path d="M689.5,657.5s-8.2,5.33-20.6-15.83c0,0-5-8.28-16.68,2.28S619.5,676.5,589.5,675.5c0,0,11,15,24,11,0,0,10,9,25,3,0,0,10,7,20,0,0,0,9,8,19,1,0,0,8,5,12,3S689.5,657.5,689.5,657.5Z" transform="translate(-54.97 -70.41)"/><path d="M702.28,657.5s8.19,5.33,20.6-15.83c0,0,5-8.28,16.68,2.28s32.72,32.55,62.72,31.55c0,0-11,15-24,11,0,0-10,9-25,3,0,0-10,7-20,0,0,0-9,8-19,1,0,0-8,5-12,3S702.28,657.5,702.28,657.5Z" transform="translate(-54.97 -70.41)"/><circle cx="640.53" cy="571.09" r="15"/><path d="M688.5,649.5,691.25,824s4.75,12,9.21,0l2-174.5Z" transform="translate(-54.97 -70.41)"/><path d="M666.5,699.8l11.62.6S686,702,683,706s-11.33,5.12-13.66,5.06S642,711,640,715c0,0,28.3,13.07,50.15,15.54s38.57,18,38.21,28.22-5.53,16-22.36,27.24-25.5,17.5-27.5,19.5c-2.4,2.4-6.77,4.33,8.5,33.5,0,0-29.56-18-20.41-34.55,8.88-16.08,37.35-28.51,44.58-35.05,5.65-5.12,8.6-10.36-1.72-18.4s-45-13-51.64-14.74c-10.23-2.75-29.32-5.52-33.87-17.14C619.27,707.17,640.5,698.1,666.5,699.8Z" transform="translate(-54.97 -70.41)"/><path d="M725.16,699.8l-11.62.6s-7.88,1.6-4.88,5.6,11.32,5.12,13.66,5.06,27.34-.06,29.34,3.94c0,0-28.3,13.07-50.15,15.54s-38.57,18-38.21,28.22,5.52,16,22.36,27.24,25.5,17.5,27.5,19.5c2.4,2.4,6.76,4.33-8.5,33.5,0,0,29.56-18,20.4-34.55-8.87-16.08-37.34-28.51-44.57-35.05-5.65-5.12-8.6-10.36,1.72-18.4s45-13,51.64-14.74c10.22-2.75,29.32-5.52,33.87-17.14C772.39,707.17,751.16,698.1,725.16,699.8Z" transform="translate(-54.97 -70.41)"/></g><g id="extras-color"><path class="cls-8" d="M689.5,942.5s-8.2,5.33-20.6-15.83c0,0-5-8.28-16.68,2.28S619.5,961.5,589.5,960.5c0,0,11,15,24,11,0,0,10,9,25,3,0,0,10,7,20,0,0,0,9,8,19,1,0,0,8,5,12,3S689.5,942.5,689.5,942.5Z" transform="translate(-54.97 -70.41)"/><path class="cls-8" d="M702.28,942.5s8.19,5.33,20.6-15.83c0,0,5-8.28,16.68,2.28s32.72,32.55,62.72,31.55c0,0-11,15-24,11,0,0-10,9-25,3,0,0-10,7-20,0,0,0-9,8-19,1,0,0-8,5-12,3S702.28,942.5,702.28,942.5Z" transform="translate(-54.97 -70.41)"/><circle class="cls-8" cx="640.53" cy="856.09" r="15"/><path class="cls-8" d="M688.5,934.5l2.75,174.5s4.75,12,9.21,0l2-174.5Z" transform="translate(-54.97 -70.41)"/><path class="cls-8" d="M666.5,984.8l11.62.6S686,987,683,991s-11.33,5.12-13.66,5.06S642,996,640,1000c0,0,28.3,13.07,50.15,15.54s38.57,18,38.21,28.22-5.53,16-22.36,27.24-25.5,17.5-27.5,19.5c-2.4,2.4-6.77,4.33,8.5,33.5,0,0-29.56-18-20.41-34.55,8.88-16.08,37.35-28.51,44.58-35,5.65-5.12,8.6-10.36-1.72-18.4s-45-13-51.64-14.74c-10.23-2.75-29.32-5.52-33.87-17.14C619.27,992.17,640.5,983.1,666.5,984.8Z" transform="translate(-54.97 -70.41)"/><path class="cls-8" d="M725.16,984.8l-11.62.6s-7.88,1.6-4.88,5.6,11.32,5.12,13.66,5.06,27.34-.06,29.34,3.94c0,0-28.3,13.07-50.15,15.54s-38.57,18-38.21,28.22,5.52,16,22.36,27.24,25.5,17.5,27.5,19.5c2.4,2.4,6.76,4.33-8.5,33.5,0,0,29.56-18,20.4-34.55-8.87-16.08-37.34-28.51-44.57-35-5.65-5.12-8.6-10.36,1.72-18.4s45-13,51.64-14.74c10.22-2.75,29.32-5.52,33.87-17.14C772.39,992.17,751.16,983.1,725.16,984.8Z" transform="translate(-54.97 -70.41)"/></g><g id="statistics"><line class="cls-1" x1="824.53" y1="647.09" x2="874.53" y2="600.09"/><line class="cls-1" x1="924.53" y1="622.09" x2="875.53" y2="600.09"/><line class="cls-1" x1="974.53" y1="574.09" x2="924.53" y2="622.09"/><line class="cls-1" x1="790.03" y1="768.59" x2="1010.03" y2="768.59"/><line class="cls-9" x1="825.03" y1="763.59" x2="825.03" y2="683.59"/><line class="cls-9" x1="875.03" y1="763.59" x2="875.03" y2="635.59"/><line class="cls-9" x1="975.03" y1="763.59" x2="975.03" y2="608.59"/><line class="cls-9" x1="925.03" y1="763.59" x2="925.03" y2="657.59"/><circle class="cls-10" cx="925.03" cy="622.59" r="13"/><circle class="cls-10" cx="975.03" cy="574.59" r="13"/><circle class="cls-10" cx="875.03" cy="600.59" r="13"/><circle class="cls-10" cx="825.03" cy="647.59" r="13"/></g><g id="statistics-color"><line class="cls-11" x1="824.53" y1="911.09" x2="874.53" y2="864.09"/><line class="cls-11" x1="924.53" y1="886.09" x2="875.53" y2="864.09"/><line class="cls-11" x1="974.53" y1="838.09" x2="924.53" y2="886.09"/><line class="cls-11" x1="790.03" y1="1032.59" x2="1010.03" y2="1032.59"/><line class="cls-12" x1="825.03" y1="1027.59" x2="825.03" y2="947.59"/><line class="cls-12" x1="875.03" y1="1027.59" x2="875.03" y2="899.59"/><line class="cls-12" x1="975.03" y1="1027.59" x2="975.03" y2="872.59"/><line class="cls-12" x1="925.03" y1="1027.59" x2="925.03" y2="921.59"/><circle class="cls-13" cx="925.03" cy="886.59" r="13"/><circle class="cls-13" cx="975.03" cy="838.59" r="13"/><circle class="cls-13" cx="875.03" cy="864.59" r="13"/><circle class="cls-13" cx="825.03" cy="911.59" r="13"/></g><rect class="cls-14" x="340.97" width="113.9" height="34.17" rx="17.08" ry="17.08"/><rect class="cls-14" x="381" y="16.35" width="33.83" height="35.63"/><rect class="cls-14" x="545" y="107.07" width="50.9" height="59.22" rx="25.45" ry="25.45" transform="translate(88 -335.43) rotate(29.74)"/><circle class="cls-15" cx="397.91" cy="255.47" r="147.54"/><text class="cls-16" transform="translate(307.33 249.07)">COMING <tspan x="28.75" y="57.6">SOON</tspan></text><circle class="cls-17" cx="398.03" cy="255.59" r="195"/></svg>