<svg id="Layer_1" data-name="Layer 1" xmlns="http://www.w3.org/2000/svg" viewBox="0 0 208.03 214.58"><defs><style>.cls-1{fill:none;stroke-width:10px;}.cls-1,.cls-2,.cls-3{stroke:#e53d00;stroke-miterlimit:10;}.cls-2{fill:#e53d00;}.cls-3{fill:#fff;}</style></defs><title>examinations-color</title><g id="examinations-color"><path class="cls-1" d="M240.73,591.5s2.09,25.07-12.38,43c-7.94,9.87-25.22,24.6-42.95,24.86" transform="translate(-54.97 -449.82)"/><path class="cls-2" d="M67.39,529.94c-17.46-41.57-15.8-64.83,5.37-75.41,14-7,34.52,4.81,36.81,6.18l-5.14,8.58c-4.59-2.74-19.44-9.69-27.19-5.82-6.66,3.33-22.25,11.12-.63,62.59Z" transform="translate(-54.97 -449.82)"/><path class="cls-2" d="M191.13,527.94l-9.22-3.88c21.62-51.47,6-59.26-.63-62.59-7.75-3.88-22.6,3.08-27.19,5.82L149,458.71c2.28-1.37,22.75-13.21,36.8-6.18C206.93,463.11,208.58,486.37,191.13,527.94Z" transform="translate(-54.97 -449.82)"/><circle class="cls-2" cx="51.53" cy="14.68" r="9"/><circle class="cls-2" cx="186.03" cy="124.18" r="21.5"/><circle class="cls-3" cx="185.53" cy="123.68" r="9"/><circle class="cls-2" cx="95.53" cy="14.68" r="9"/><path class="cls-2" d="M191.39,527.31c.11-.27-8.8-4.89-8.83-4.82s-.17.41-.26.62l-.12.3a301,301,0,0,1-19.47,31c-13.68,18.81-25.92,29.06-33.59,28.1-4.81-.6-15.71-5.32-34.58-30.11a319.32,319.32,0,0,1-18-26.62c-.21-.48-.41-1-.61-1.45-.11-.28-9.5,3.16-9.39,3.44,0,0,35.64,61.45,61.37,64.66a17.49,17.49,0,0,0,2.29.14c11.54,0,24.87-10.6,40.62-32.29a306,306,0,0,0,20.32-32.38Z" transform="translate(-54.97 -449.82)"/><path class="cls-1" d="M130.5,591.5s-2.09,25.07,12.38,43c7.94,9.87,25.21,24.6,43,24.86" transform="translate(-54.97 -449.82)"/></g></svg>