<svg id="Layer_1" data-name="Layer 1" xmlns="http://www.w3.org/2000/svg" viewBox="0 0 212.78 212.5"><defs><style>.cls-1{fill:#fec311;}</style></defs><title>extras-color</title><g id="extras-color"><path class="cls-1" d="M689.5,492.5s-8.2,5.33-20.6-15.83c0,0-5-8.28-16.68,2.28S619.5,511.5,589.5,510.5c0,0,11,15,24,11,0,0,10,9,25,3,0,0,10,7,20,0,0,0,9,8,19,1,0,0,8,5,12,3S689.5,492.5,689.5,492.5Z" transform="translate(-589.5 -461.5)"/><path class="cls-1" d="M702.28,492.5s8.19,5.33,20.6-15.83c0,0,5-8.28,16.68,2.28s32.72,32.55,62.72,31.55c0,0-11,15-24,11,0,0-10,9-25,3,0,0-10,7-20,0,0,0-9,8-19,1,0,0-8,5-12,3S702.28,492.5,702.28,492.5Z" transform="translate(-589.5 -461.5)"/><circle class="cls-1" cx="106" cy="15" r="15"/><path class="cls-1" d="M688.5,484.5,691.25,659s4.75,12,9.21,0l2-174.5Z" transform="translate(-589.5 -461.5)"/><path class="cls-1" d="M666.5,534.8l11.62.6S686,537,683,541s-11.33,5.12-13.66,5.06S642,546,640,550c0,0,28.3,13.07,50.15,15.54s38.57,18,38.21,28.22-5.53,16-22.36,27.24-25.5,17.5-27.5,19.5c-2.4,2.4-6.77,4.33,8.5,33.5,0,0-29.56-18-20.41-34.55,8.88-16.08,37.35-28.51,44.58-35.05,5.65-5.12,8.6-10.36-1.72-18.4s-45-13-51.64-14.74c-10.23-2.75-29.32-5.52-33.87-17.14C619.27,542.17,640.5,533.1,666.5,534.8Z" transform="translate(-589.5 -461.5)"/><path class="cls-1" d="M725.16,534.8l-11.62.6s-7.88,1.6-4.88,5.6,11.32,5.12,13.66,5.06,27.34-.06,29.34,3.94c0,0-28.3,13.07-50.15,15.54s-38.57,18-38.21,28.22,5.52,16,22.36,27.24,25.5,17.5,27.5,19.5c2.4,2.4,6.76,4.33-8.5,33.5,0,0,29.56-18,20.4-34.55-8.87-16.08-37.34-28.51-44.57-35.05-5.65-5.12-8.6-10.36,1.72-18.4s45-13,51.64-14.74c10.22-2.75,29.32-5.52,33.87-17.14C772.39,542.17,751.16,533.1,725.16,534.8Z" transform="translate(-589.5 -461.5)"/></g></svg>